<svg width="25" height="24" viewBox="0 0 25 24" fill="none" xmlns="http://www.w3.org/2000/svg">
<path d="M7.56923 21.6944H4.61089C4.08783 21.6944 3.58619 21.4866 3.21632 21.1167C2.84646 20.7469 2.63867 20.2452 2.63867 19.7222V12.8194C2.63867 12.2963 2.84646 11.7947 3.21632 11.4248C3.58619 11.055 4.08783 10.8472 4.61089 10.8472H7.56923M14.472 8.87495V4.9305C14.472 4.1459 14.1603 3.39344 13.6055 2.83864C13.0507 2.28385 12.2983 1.97217 11.5137 1.97217L7.56923 10.8472V21.6944H18.6926C19.1682 21.6998 19.6297 21.5331 19.9922 21.225C20.3546 20.9169 20.5935 20.4883 20.6648 20.018L22.0256 11.143C22.0685 10.8603 22.0495 10.5717 21.9697 10.2972C21.89 10.0226 21.7516 9.76865 21.564 9.55291C21.3764 9.33717 21.1441 9.16479 20.8833 9.04773C20.6224 8.93066 20.3393 8.87171 20.0534 8.87495H14.472Z" stroke="#74779A" stroke-width="1.42" stroke-linecap="round" stroke-linejoin="round"/>
</svg>
