<svg width="25" height="24" viewBox="0 0 25 24" fill="none" xmlns="http://www.w3.org/2000/svg">
<path d="M13.2534 17.0496C13.2049 17.005 13.152 16.9653 13.0956 16.9313C13.0452 16.8922 12.9885 16.8622 12.9279 16.8425C12.8692 16.8125 12.8059 16.7925 12.7406 16.7833C12.5517 16.7434 12.355 16.7641 12.1785 16.8425C12.0561 16.8868 11.945 16.9575 11.853 17.0495C11.7609 17.1415 11.6903 17.2526 11.646 17.375C11.5908 17.492 11.5638 17.6204 11.5671 17.7497C11.5655 17.8779 11.589 18.0052 11.6361 18.1244C11.6933 18.2423 11.7663 18.3518 11.8531 18.4499C11.9452 18.5413 12.0545 18.6136 12.1746 18.6626C12.2948 18.7117 12.4234 18.7366 12.5532 18.7358C12.6826 18.7392 12.8109 18.7122 12.9279 18.6569C13.0474 18.607 13.1575 18.537 13.2534 18.4499C13.3448 18.3577 13.4171 18.2484 13.4661 18.1283C13.5152 18.0082 13.5401 17.8795 13.5393 17.7497C13.5378 17.6209 13.511 17.4936 13.4604 17.375C13.4135 17.254 13.3431 17.1434 13.2534 17.0496ZM9.15114 12.9868C9.1008 12.9478 9.04408 12.9178 8.9835 12.8981C8.92607 12.8612 8.86268 12.8345 8.79614 12.8192C8.66964 12.7897 8.53806 12.7897 8.41156 12.8192L8.23406 12.8783L8.05656 12.9671L7.90864 13.0854C7.72377 13.2793 7.62127 13.5374 7.62267 13.8053C7.62192 13.9351 7.64679 14.0637 7.69586 14.1839C7.74494 14.304 7.81725 14.4133 7.90864 14.5054C8.00449 14.5925 8.11455 14.6626 8.23406 14.7125C8.38345 14.7739 8.54563 14.7976 8.70635 14.7816C8.86707 14.7657 9.0214 14.7105 9.15579 14.6209C9.29017 14.5313 9.40049 14.41 9.47706 14.2678C9.55362 14.1256 9.59408 13.9668 9.59489 13.8053C9.59126 13.5442 9.48911 13.2941 9.30892 13.1051L9.15114 12.9868ZM9.30892 17.0496C9.21513 16.9598 9.10455 16.8894 8.9835 16.8425C8.80499 16.7597 8.60581 16.7323 8.41156 16.7636L8.23406 16.8228C8.17122 16.8444 8.11153 16.8742 8.05656 16.9115C8.0049 16.9479 7.9555 16.9875 7.90864 17.0299C7.81886 17.1236 7.74849 17.2342 7.70156 17.3553C7.64939 17.4733 7.62244 17.601 7.62244 17.73C7.62244 17.8591 7.64939 17.9867 7.70156 18.1047C7.75149 18.2242 7.82154 18.3343 7.90864 18.4301C7.99914 18.5251 8.10768 18.6011 8.2279 18.6535C8.34812 18.706 8.47761 18.734 8.60878 18.7358C8.73813 18.7392 8.86647 18.7122 8.9835 18.6569C9.103 18.607 9.21307 18.537 9.30892 18.4499C9.39602 18.354 9.46606 18.2439 9.516 18.1244C9.56817 18.0064 9.59512 17.8788 9.59512 17.7497C9.59512 17.6207 9.56817 17.493 9.516 17.375C9.46907 17.254 9.39869 17.1434 9.30892 17.0496ZM12.1785 12.8981C12.0575 12.945 11.9469 13.0154 11.8531 13.1051C11.6729 13.2941 11.5707 13.5442 11.5671 13.8053C11.5679 13.9668 11.6084 14.1256 11.6849 14.2678C11.7615 14.41 11.8718 14.5313 12.0062 14.6209C12.1406 14.7105 12.2949 14.7657 12.4557 14.7816C12.6164 14.7976 12.7786 14.7739 12.9279 14.7125C13.0474 14.6626 13.1575 14.5925 13.2534 14.5054C13.3448 14.4133 13.4171 14.304 13.4661 14.1839C13.5152 14.0637 13.5401 13.9351 13.5393 13.8053C13.5357 13.5442 13.4336 13.2941 13.2534 13.1051C13.1147 12.9683 12.9386 12.8756 12.7473 12.8388C12.556 12.8019 12.3581 12.8225 12.1785 12.8981ZM17.1978 17.0496C17.102 16.9625 16.9919 16.8924 16.8724 16.8425C16.6928 16.767 16.4949 16.7464 16.3036 16.7832C16.1123 16.8201 15.9362 16.9128 15.7975 17.0496C15.7078 17.1434 15.6374 17.254 15.5904 17.375C15.5383 17.493 15.5113 17.6207 15.5113 17.7497C15.5113 17.8788 15.5383 18.0064 15.5904 18.1244C15.6404 18.2439 15.7104 18.354 15.7975 18.4499C15.8897 18.5413 15.9989 18.6136 16.1191 18.6626C16.2392 18.7117 16.3679 18.7366 16.4977 18.7358C16.627 18.7392 16.7554 18.7122 16.8724 18.6569C16.9919 18.607 17.102 18.537 17.1978 18.4499C17.3346 18.3112 17.4273 18.1351 17.4642 17.9438C17.501 17.7525 17.4804 17.5546 17.4049 17.375C17.358 17.254 17.2876 17.1434 17.1978 17.0496ZM16.4977 4.93028H8.60878C8.34725 4.93028 8.09642 5.03418 7.91149 5.21911C7.72656 5.40404 7.62267 5.65486 7.62267 5.9164V9.86084C7.62267 10.1224 7.72656 10.3732 7.91149 10.5581C8.09642 10.7431 8.34725 10.847 8.60878 10.847H16.4977C16.7592 10.847 17.01 10.7431 17.195 10.5581C17.3799 10.3732 17.4838 10.1224 17.4838 9.86084V5.9164C17.4838 5.65486 17.3799 5.40404 17.195 5.21911C17.01 5.03418 16.7592 4.93028 16.4977 4.93028ZM15.5116 8.87473H9.59489V6.90251H15.5116V8.87473ZM18.4699 0.98584H6.63656C5.85196 0.98584 5.09949 1.29752 4.5447 1.85232C3.9899 2.40711 3.67822 3.15957 3.67822 3.94417V19.722C3.67822 20.5065 3.9899 21.259 4.5447 21.8138C5.09949 22.3686 5.85196 22.6803 6.63656 22.6803H18.4699C19.2545 22.6803 20.007 22.3686 20.5617 21.8138C21.1165 21.259 21.4282 20.5065 21.4282 19.722V3.94417C21.4282 3.15957 21.1165 2.40711 20.5617 1.85232C20.007 1.29752 19.2545 0.98584 18.4699 0.98584ZM19.456 19.722C19.456 19.9835 19.3521 20.2343 19.1672 20.4192C18.9822 20.6042 18.7314 20.7081 18.4699 20.7081H6.63656C6.37502 20.7081 6.1242 20.6042 5.93927 20.4192C5.75434 20.2343 5.65044 19.9835 5.65044 19.722V3.94417C5.65044 3.68264 5.75434 3.43182 5.93927 3.24689C6.1242 3.06196 6.37502 2.95806 6.63656 2.95806H18.4699C18.7314 2.95806 18.9822 3.06196 19.1672 3.24689C19.3521 3.43182 19.456 3.68264 19.456 3.94417V19.722ZM17.04 12.9868C16.9897 12.9478 16.933 12.9178 16.8724 12.8981C16.8137 12.868 16.7503 12.848 16.685 12.8389C16.5585 12.8094 16.4269 12.8094 16.3004 12.8389L16.1229 12.8981L15.9454 12.9868L15.7975 13.1051C15.6173 13.2941 15.5152 13.5442 15.5116 13.8053C15.5124 13.9668 15.5528 14.1256 15.6294 14.2678C15.706 14.41 15.8163 14.5313 15.9507 14.6209C16.085 14.7105 16.2394 14.7657 16.4001 14.7816C16.5608 14.7976 16.723 14.7739 16.8724 14.7125C16.9919 14.6626 17.102 14.5925 17.1978 14.5054C17.2892 14.4133 17.3615 14.304 17.4106 14.1839C17.4597 14.0637 17.4845 13.9351 17.4838 13.8053C17.4801 13.5442 17.378 13.2941 17.1978 13.1051L17.04 12.9868Z" fill="#74779A"/>
</svg>
