<svg width="25" height="24" viewBox="0 0 25 24" fill="none" xmlns="http://www.w3.org/2000/svg">
<path d="M16.1582 12.5335C17.1249 11.7728 17.8306 10.7298 18.177 9.54944C18.5233 8.36908 18.4932 7.11012 18.0907 5.94769C17.6883 4.78527 16.9335 3.77719 15.9314 3.0637C14.9294 2.35021 13.7298 1.9668 12.4997 1.9668C11.2696 1.9668 10.07 2.35021 9.06796 3.0637C8.06589 3.77719 7.31112 4.78527 6.90865 5.94769C6.50619 7.11012 6.47604 8.36908 6.82241 9.54944C7.16879 10.7298 7.87444 11.7728 8.84122 12.5335C7.18463 13.1972 5.7392 14.298 4.65902 15.7185C3.57884 17.1391 2.9044 18.8261 2.70761 20.5999C2.69336 20.7294 2.70476 20.8604 2.74116 20.9855C2.77756 21.1106 2.83824 21.2273 2.91973 21.3289C3.08432 21.5342 3.32371 21.6657 3.58525 21.6944C3.84678 21.7232 4.10903 21.6469 4.3143 21.4823C4.51958 21.3177 4.65106 21.0783 4.67983 20.8168C4.89637 18.8891 5.81552 17.1088 7.26169 15.816C8.70785 14.5232 10.5796 13.8085 12.5194 13.8085C14.4592 13.8085 16.331 14.5232 17.7771 15.816C19.2233 17.1088 20.1425 18.8891 20.359 20.8168C20.3858 21.0591 20.5014 21.2829 20.6835 21.445C20.8656 21.607 21.1013 21.6959 21.3451 21.6944H21.4536C21.7121 21.6647 21.9483 21.534 22.1109 21.3308C22.2734 21.1276 22.3491 20.8684 22.3214 20.6097C22.1236 18.831 21.4456 17.1396 20.3598 15.7168C19.2741 14.2941 17.8216 13.1936 16.1582 12.5335ZM12.4997 11.8333C11.7196 11.8333 10.9569 11.602 10.3083 11.1686C9.65962 10.7351 9.15405 10.1191 8.8555 9.39836C8.55695 8.6776 8.47884 7.88451 8.63104 7.11936C8.78324 6.35421 9.15891 5.65138 9.71055 5.09974C10.2622 4.5481 10.965 4.17243 11.7302 4.02023C12.4953 3.86803 13.2884 3.94615 14.0092 4.24469C14.7299 4.54324 15.346 5.04881 15.7794 5.69747C16.2128 6.34613 16.4441 7.10875 16.4441 7.88888C16.4441 8.93502 16.0286 9.9383 15.2888 10.678C14.5491 11.4178 13.5458 11.8333 12.4997 11.8333Z" fill="#74779A"/>
</svg>
