<svg width="21" height="21" viewBox="0 0 21 21" fill="none" xmlns="http://www.w3.org/2000/svg">
<g clip-path="url(#clip0)">
<path d="M14.3786 7.07859L7.04265 11.6285C6.91349 11.7086 6.85473 11.8658 6.8998 12.011L7.88384 15.1819C7.90451 15.2485 8.00159 15.2393 8.0094 15.17L8.24858 13.0438C8.25779 12.9617 8.2972 12.8859 8.35913 12.8311L14.5714 7.33765C14.7201 7.20616 14.5474 6.97392 14.3786 7.07859Z" fill="#3B4D6D"/>
<path d="M0.5 0.5V20.5H20.5V0.5H0.5ZM17.1713 5.69684L14.8879 16.6138C14.7808 17.1261 14.1799 17.3562 13.758 17.0465L10.3104 14.5158L8.55326 16.3099C8.24488 16.6248 7.71215 16.4973 7.57966 16.077L6.31132 12.0524L2.91278 11.0488C2.46691 10.9172 2.44062 10.2955 2.87381 10.1267L16.2481 4.91489C16.7571 4.71652 17.2832 5.16205 17.1713 5.69684Z" fill="#3B4D6D"/>
</g>
<defs>
<clipPath id="clip0">
<rect x="0.5" y="0.5" width="20" height="20" rx="2" fill="white"/>
</clipPath>
</defs>
</svg>
