<svg width="25" height="24" viewBox="0 0 25 24" fill="none" xmlns="http://www.w3.org/2000/svg">
<path d="M18.4166 9.86135C18.4166 9.59982 18.3127 9.34899 18.1278 9.16406C17.9429 8.97913 17.692 8.87524 17.4305 8.87524H6.00148L8.26953 6.61704C8.45522 6.43135 8.55954 6.17951 8.55954 5.9169C8.55954 5.6543 8.45522 5.40245 8.26953 5.21676C8.08384 5.03108 7.832 4.92676 7.56939 4.92676C7.30679 4.92676 7.05494 5.03108 6.86925 5.21676L2.92481 9.16121C2.78798 9.29988 2.69529 9.47597 2.65843 9.66727C2.62158 9.85856 2.64221 10.0565 2.71773 10.2361C2.7917 10.4162 2.91733 10.5703 3.07878 10.6791C3.24022 10.7879 3.43026 10.8465 3.62495 10.8475H17.4305C17.692 10.8475 17.9429 10.7436 18.1278 10.5586C18.3127 10.3737 18.4166 10.1229 18.4166 9.86135ZM22.2822 13.4311C22.2082 13.251 22.0826 13.0968 21.9211 12.988C21.7597 12.8792 21.5696 12.8207 21.3749 12.8197H7.56939C7.30786 12.8197 7.05704 12.9236 6.87211 13.1085C6.68717 13.2934 6.58328 13.5443 6.58328 13.8058C6.58328 14.0673 6.68717 14.3181 6.87211 14.5031C7.05704 14.688 7.30786 14.7919 7.56939 14.7919H18.9984L16.7304 17.0501C16.6379 17.1418 16.5646 17.2508 16.5145 17.371C16.4644 17.4912 16.4387 17.6201 16.4387 17.7502C16.4387 17.8804 16.4644 18.0093 16.5145 18.1295C16.5646 18.2496 16.6379 18.3587 16.7304 18.4504C16.822 18.5428 16.9311 18.6162 17.0513 18.6662C17.1714 18.7163 17.3003 18.7421 17.4305 18.7421C17.5607 18.7421 17.6896 18.7163 17.8097 18.6662C17.9299 18.6162 18.039 18.5428 18.1306 18.4504L22.0751 14.5059C22.2119 14.3673 22.3046 14.1912 22.3415 13.9999C22.3783 13.8086 22.3577 13.6107 22.2822 13.4311Z" fill="#74779A"/>
</svg>
