<svg width="20" height="20" viewBox="0 0 20 20" fill="none" xmlns="http://www.w3.org/2000/svg">
<path d="M6.57855 15.4027L4.61096 14.6429C4.87392 15.6993 5.8279 16.4821 6.96687 16.4821C8.30764 16.4821 9.39616 15.3951 9.39616 14.0528C9.39616 12.7135 8.30764 11.625 6.96687 11.625C6.48376 11.625 6.03429 11.7672 5.65667 12.0103L7.5998 12.7594C8.32905 13.0422 8.69291 13.8617 8.4116 14.5909C8.12877 15.3217 7.30933 15.6871 6.57855 15.4027Z" fill="#3B4D6D"/>
<path d="M14.0743 9.72947C15.7346 9.72947 17.0846 8.37952 17.0846 6.71923C17.0846 5.05893 15.7346 3.70898 14.0743 3.70898C12.4156 3.70898 11.0641 5.05893 11.0641 6.71923C11.0641 8.378 12.4156 9.72947 14.0743 9.72947ZM14.0743 4.59876C15.2454 4.59876 16.1963 5.54968 16.1963 6.71923C16.1963 7.88877 15.2454 8.8397 14.0743 8.8397C12.9048 8.8397 11.9539 7.88877 11.9539 6.71923C11.9539 5.54968 12.9048 4.59876 14.0743 4.59876Z" fill="#3B4D6D"/>
<path d="M17.3781 0.000976562H2.62192C1.1726 0.000976562 0 1.17511 0 2.6229V9.8221L3.8144 11.2959C4.55282 10.4413 5.63522 9.89396 6.84911 9.87408L9.1408 6.81645C9.1408 4.10585 11.3392 1.90894 14.0483 1.90894C16.7589 1.90894 18.9558 4.10585 18.9558 6.81645C18.9558 8.30399 18.2923 9.63712 17.2466 10.5376C16.3859 11.276 15.2698 11.724 14.0483 11.724C13.9199 11.724 13.793 11.7178 13.6676 11.7071L11.0044 13.7145C11.0105 13.7986 11.0136 13.8842 11.0136 13.9698C11.0136 16.2324 9.17902 18.0701 6.91637 18.0701C4.65372 18.0701 2.81914 16.234 2.81914 13.9698C2.81914 13.9637 2.81914 13.9545 2.81914 13.9469L0 12.8583V17.376C0 18.8238 1.17413 19.9979 2.62192 19.9979H17.3781C18.8259 19.9979 20 18.8238 20 17.376V2.62443C20 1.17664 18.8259 0.000976562 17.3781 0.000976562Z" fill="#3B4D6D"/>
</svg>
